<svg height="512" viewBox="0 0 512 512" width="512" xmlns="http://www.w3.org/2000/svg">
	<path d="m344 208h-96v112h8 80 8z" fill="#fec9a3"/>
	<path d="m344 243.705v-35.705h-96v35.705a99.844 99.844 0 0 0 96 0z" fill="#feb784"/>
	<path d="m408 268v228h-224v-228l64-12a48 48 0 0 0 96 0z" fill="#3d4d63"/>
	<path d="m376 104h-8v48h8a24 24 0 0 0 0-48z" fill="#feb784"/>
	<path d="m216.4 104h-.4a24 24 0 0 0 0 48h8v-48z" fill="#feb784"/>
	<path d="m368 96v72a72 72 0 0 1 -69.33 71.95c-.88.03-1.78.05-2.67.05a72.006 72.006 0 0 1 -72-72v-72a72.006 72.006 0 0 1 62.14-71.32h.01a72 72 0 0 1 81.85 71.32z" fill="#fec9a3"/>
	<path d="m368 96v72a72 72 0 0 1 -69.33 71.95 87.892 87.892 0 0 0 37.33-71.95v-64a88.141 88.141 0 0 0 -49.85-79.32 72 72 0 0 1 81.85 71.32z" fill="#fec093"/>
	<circle cx="260" cy="115.996" fill="#7a432a" r="12"/>
	<circle cx="332" cy="115.996" fill="#7a432a" r="12"/>
	<path d="m286.891 168h-14.891v16h14.891c13.9 0 27.089-3.227 37.14-9.09l-8.062-13.82c-7.532 4.39-18.129 6.91-29.078 6.91z" fill="#f7a468"/>
	<path d="m224 120v-32c0-26.51 17.909-48 40-48l-1.407 5.068c-7.843 28.232-21.056 53.888-38.593 74.932z" fill="#743b20"/>
	<path d="m368 120v-55.015c0-6.985-8-19.652-24-24.985v24s10.847 34.956 24 56z" fill="#743b20"/>
	<path d="m344 64h-88a32 32 0 0 1 -32-32v-8h81.373a54.626 54.626 0 0 1 38.627 16z" fill="#7a432a"/>
	<path d="m245.789 24 25.454 40h18.968l-25.454-40z" fill="#8c5137"/>
	<path d="m285.789 24 25.454 40h18.968l-25.454-40z" fill="#8c5137"/>
	<path d="m408 300.89v195.11h-224v-17.24c89.91-34.33 163.77-75.97 224-177.87z" fill="#374559"/>
	<path d="m432.846 272.659-40.846-7.659v-49h-40a8 8 0 0 0 -8 8v272h128v-176.164a48 48 0 0 0 -39.154-47.177z" fill="#ea4a3b"/>
	<path d="m240 216h-40v48l-57.919 12.1a48 48 0 0 0 -31.946 21.879l-63.702 120.521a39.8 39.8 0 1 0 66.853 43.215l40-85.717 30.714-55.998v176h64v-272a8 8 0 0 0 -8-8z" fill="#ea4a3b"/>
	<path d="m80 480a40 40 0 0 1 -40-40v-112h80v112a40 40 0 0 1 -40 40z" fill="#f35244"/>
	<g fill="#de4132">
		<path d="m184 368h64v16h-64z"/>
		<path d="m184 424h64v16h-64z"/>
		<path d="m184 320v8h64v-16h-64z"/>
		<path d="m200 256.247v7.753l-17.132 3.579 65.132 20.75v-16.79z"/>
		<path d="m392 265v-9.302l-48 15.568v8.734 8.086l62.689-20.332z"/>
		<path d="m344 368h128v16h-128z"/>
		<path d="m472 319.836a47.973 47.973 0 0 0 -.694-7.836h-127.306v16h128z"/>
		<path d="m344 424h128v16h-128z"/>
		<path d="m120 384h29.553l3.733-8 4.388-8h-37.674z"/>
		<path d="m73.126 368h-9.126-24v16h24 .669 55.331v-16z"/>
		<path d="m43.569 424h-3.569v16h.015 79.985v-16z"/>
	</g>
	<path d="m400 352h16v144h-16z" fill="#cf3b2e"/>
	<path d="m96 200a25.887 25.887 0 0 0 -23.155 14.311l-8.845 17.689v24h32v-24a16 16 0 0 0 0-32z" fill="#feb784"/>
	<path d="m248 232v64a24.006 24.006 0 0 1 -24 24h-112a24.006 24.006 0 0 1 -24-24v-64a24.006 24.006 0 0 1 24-24h16l13.63-20.44a8 8 0 0 1 6.65-3.56h39.44a8 8 0 0 1 6.65 3.56l13.63 20.44h16a24.017 24.017 0 0 1 24 24z" fill="#2e3e51"/>
	<path d="m248 232v64a24.006 24.006 0 0 1 -24 24h-112a24 24 0 0 1 -21.82-14.01c47.16-9.49 115.06-33.87 143.58-95.91a23.989 23.989 0 0 1 14.24 21.92z" fill="#29384a"/>
	<path d="m168 312a48 48 0 1 1 48-48 48.052 48.052 0 0 1 -48 48z" fill="#3d4d63"/>
	<circle cx="168" cy="264" fill="#3086cd" r="32"/>
	<circle cx="168" cy="264" fill="#348fd9" r="16"/>
	<path d="m145.373 286.627a32 32 0 1 0 45.254-45.254z" fill="#3086cd"/>
	<path d="m72 232a32 32 0 0 0 -32 32v64h64a16 16 0 0 0 16-16v-64a16 16 0 0 0 -16-16z" fill="#fec9a3"/>
	<path d="m104 232h-32a16 16 0 0 1 16 16v64a16 16 0 0 1 -16 16h32a16 16 0 0 0 16-16v-64a16 16 0 0 0 -16-16z" fill="#fec093"/>
</svg>